<svg width="113" height="31" viewBox="0 0 113 31" fill="none" xmlns="http://www.w3.org/2000/svg">
<path d="M1 16.8V0H6.688C10.144 0 12.448 1.608 12.448 4.776C12.448 6.096 11.752 7.224 10.576 8.016C12.136 8.808 13.024 10.128 13.024 12C13.024 15.072 10.816 16.8 7.456 16.8H1ZM4.216 13.896H7.144C8.704 13.896 9.664 13.032 9.664 11.736C9.664 10.368 8.608 9.528 6.88 9.528H4.216V13.896ZM4.216 6.84H6.76C8.176 6.84 9.088 6.072 9.088 4.728C9.088 3.384 8.08 2.616 6.496 2.616H4.216V6.84Z" fill="url(#paint0_linear_3053_32943)"/>
<path d="M20.4133 17.088C16.8613 17.088 14.3413 14.496 14.3413 10.8C14.3413 7.104 16.9333 4.512 20.5813 4.512C23.7253 4.512 26.4373 7.08 26.4373 11.64H17.6533C17.7973 13.272 19.2133 14.256 20.7493 14.256C22.0693 14.256 22.8613 13.632 23.3173 12.744L26.1493 13.848C25.1173 15.888 23.2453 17.088 20.4133 17.088ZM17.8213 9.288H23.0053C22.8613 7.776 21.5173 7.2 20.4853 7.2C19.4533 7.2 17.9893 7.776 17.8213 9.288Z" fill="url(#paint1_linear_3053_32943)"/>
<path d="M32.5164 17.088C30.1884 17.088 28.2444 16.032 27.3804 14.112L30.0924 12.864C30.5724 13.632 31.4124 14.28 32.5164 14.28C33.5724 14.28 34.1724 13.968 34.1724 13.392C34.1724 12.816 33.6684 12.6 32.8764 12.408L31.7724 12.12C29.4684 11.52 28.0524 10.104 28.0524 8.376C28.0524 5.928 29.7084 4.512 32.6124 4.512C34.8444 4.512 36.8124 5.616 37.3404 7.176L34.7244 8.376C34.5084 7.728 33.4764 7.296 32.6124 7.296C31.7484 7.296 31.2684 7.704 31.2684 8.328C31.2684 8.736 31.7244 9 32.5644 9.192L34.1244 9.576C36.4524 10.152 37.3644 11.952 37.3644 13.44C37.3644 15.624 35.3004 17.088 32.5164 17.088Z" fill="url(#paint2_linear_3053_32943)"/>
<path d="M43.9021 17.088C41.2381 17.088 39.8701 15.744 39.8701 13.296V7.488H37.9261V4.8H39.8701V1.056H43.0381V4.8H46.0381V7.488H43.0381V12.6C43.0381 13.656 43.4701 14.16 44.3581 14.16C44.6701 14.16 45.0541 14.016 45.4861 13.728L46.5901 16.104C45.7981 16.68 44.8141 17.088 43.9021 17.088Z" fill="url(#paint3_linear_3053_32943)"/>
<path d="M59.3531 16.8L52.6571 0H56.1851L61.1291 13.032L66.0731 0H69.6011L62.9291 16.8H59.3531Z" fill="url(#paint4_linear_3053_32943)"/>
<path d="M77.1904 16.8L77.1424 15.408C76.5184 16.488 75.4384 17.088 73.8304 17.088C70.9504 17.088 69.2944 15.768 69.2944 13.416C69.2944 10.848 71.0944 9.552 74.1904 9.552H77.0224C76.8064 8.112 76.1344 7.272 74.8144 7.272C73.7824 7.272 72.9424 7.704 72.3664 8.64L69.5824 7.68C70.2304 6.144 71.7904 4.512 74.8144 4.512C78.4624 4.512 80.2624 6.72 80.2144 10.152L80.1424 16.8H77.1904ZM72.5344 13.32C72.5344 14.016 73.2064 14.448 74.3584 14.448C75.9184 14.448 77.0944 13.152 77.0944 11.904H75.2944C73.2064 11.904 72.5344 12.432 72.5344 13.32Z" fill="url(#paint5_linear_3053_32943)"/>
<path d="M82.4893 16.8V0H85.6573V16.8H82.4893Z" fill="url(#paint6_linear_3053_32943)"/>
<path d="M96.0656 16.8L95.9216 15.192C95.1296 16.416 93.9056 17.088 92.3936 17.088C89.5376 17.088 87.9056 15.408 87.9296 11.592V4.8H91.0976V10.944C91.0976 13.368 91.9856 14.088 93.3296 14.112C94.9856 14.136 95.8736 13.08 95.8736 11.088V4.8H99.0416V16.8H96.0656Z" fill="url(#paint7_linear_3053_32943)"/>
<path d="M106.96 17.088C103.408 17.088 100.888 14.496 100.888 10.8C100.888 7.104 103.48 4.512 107.128 4.512C110.272 4.512 112.984 7.08 112.984 11.64H104.2C104.344 13.272 105.76 14.256 107.296 14.256C108.616 14.256 109.408 13.632 109.864 12.744L112.696 13.848C111.664 15.888 109.792 17.088 106.96 17.088ZM104.368 9.288H109.552C109.408 7.776 108.064 7.2 107.032 7.2C106 7.2 104.536 7.776 104.368 9.288Z" fill="url(#paint8_linear_3053_32943)"/>
<mask id="path-2-outside-1_3053_32943" maskUnits="userSpaceOnUse" x="0" y="10.0664" width="79" height="21" fill="black">
<rect fill="white" y="10.0664" width="79" height="21"/>
<path d="M5.13031 29.5711C3.91744 29.5711 2.92584 29.1613 2.1555 28.3418C1.38517 27.5223 1 26.375 1 24.8999C1 23.8509 1.18029 22.8593 1.54087 21.9251C1.90146 20.9744 2.40136 20.1303 3.04057 19.3928C3.69618 18.6552 4.44193 18.0734 5.27782 17.6472C6.13011 17.2211 7.03976 17.008 8.00678 17.008C8.58043 17.008 9.11311 17.0982 9.60482 17.2785C10.1129 17.4588 10.5145 17.7128 10.8095 18.0406C11.1209 18.3684 11.2684 18.7536 11.252 19.1961C11.2356 19.6386 11.0963 19.991 10.8341 20.2533C10.5718 20.4991 10.2276 20.6221 9.8015 20.6221C9.34257 20.6221 8.9738 20.4827 8.69516 20.2041C8.41653 19.9255 8.19526 19.6059 8.03136 19.2453L7.88385 18.8273C7.65439 18.2865 7.44951 17.9669 7.26922 17.8685C7.10532 17.7538 6.81849 17.8685 6.40874 18.2127C5.96621 18.5897 5.54826 19.0978 5.1549 19.737C4.77792 20.3762 4.47471 21.081 4.24525 21.8513C4.01578 22.6216 3.90105 23.4084 3.90105 24.2115C3.90105 25.4407 4.16329 26.3504 4.68778 26.9404C5.22865 27.5141 5.94982 27.8009 6.85127 27.8009C7.44132 27.8009 8.02317 27.6124 8.59682 27.2355C9.17048 26.8585 9.70316 26.334 10.1949 25.662L10.5391 25.9079C10.1949 26.5471 9.75233 27.1453 9.21145 27.7026C8.67058 28.2599 8.04775 28.7106 7.34298 29.0548C6.65459 29.399 5.91704 29.5711 5.13031 29.5711Z"/>
<path d="M15.8961 29.5711C15.0438 29.5711 14.2653 29.4072 13.5605 29.0794C12.8558 28.7352 12.2985 28.2271 11.8887 27.5551C11.479 26.8667 11.2741 25.998 11.2741 24.949C11.2741 23.9001 11.4462 22.9003 11.7904 21.9497C12.151 20.999 12.6509 20.1549 13.2901 19.4174C13.9293 18.6634 14.6751 18.0734 15.5273 17.6472C16.3796 17.2211 17.3057 17.008 18.3055 17.008C19.1742 17.008 19.9445 17.1801 20.6165 17.5243C21.3049 17.8521 21.8457 18.352 22.2391 19.024C22.6489 19.696 22.8537 20.5565 22.8537 21.6055C22.8537 22.638 22.6734 23.6378 22.3129 24.6049C21.9687 25.5555 21.477 26.4078 20.8377 27.1617C20.2149 27.8993 19.4774 28.4893 18.6251 28.9318C17.7892 29.358 16.8795 29.5711 15.8961 29.5711ZM16.1911 29.0794C16.6992 29.0794 17.1582 28.8499 17.5679 28.391C17.9941 27.9157 18.3628 27.2928 18.6743 26.5225C18.9857 25.7358 19.2233 24.8753 19.3872 23.9411C19.5511 22.9904 19.6331 22.048 19.6331 21.1138C19.6331 19.7534 19.4938 18.8109 19.2151 18.2865C18.9365 17.762 18.5759 17.4997 18.1334 17.4997C17.6089 17.4997 17.1254 17.7292 16.6829 18.1881C16.2403 18.647 15.8552 19.2617 15.5273 20.032C15.1995 20.8023 14.9455 21.6546 14.7652 22.5889C14.5849 23.5231 14.4948 24.4573 14.4948 25.3916C14.4948 26.7847 14.6587 27.7518 14.9865 28.2926C15.3143 28.8171 15.7158 29.0794 16.1911 29.0794Z"/>
<path d="M26.6598 29.2023L23.6604 29.3744L23.4638 29.2023L25.3568 20.1549C25.5043 19.4993 25.2749 19.0486 24.6684 18.8027L24.2259 18.5815L24.2751 18.3356L28.8479 16.9834L29.0692 17.2047L28.5529 19.8599C29.3888 18.9912 30.2411 18.3028 31.1097 17.7948C31.9784 17.2703 32.7897 17.008 33.5437 17.008C34.0682 17.008 34.5025 17.1719 34.8467 17.4997C35.1909 17.8111 35.363 18.3028 35.363 18.9748C35.363 19.1224 35.3548 19.2699 35.3384 19.4174C35.322 19.5649 35.3056 19.7206 35.2892 19.8845C36.1087 18.9994 36.9364 18.3028 37.7723 17.7948C38.6246 17.2703 39.4359 17.008 40.2063 17.008C40.7308 17.008 41.1569 17.1719 41.4847 17.4997C41.8289 17.8111 42.001 18.3028 42.001 18.9748C42.001 19.319 41.9682 19.6796 41.9026 20.0566C41.8371 20.4172 41.7551 20.7941 41.6568 21.1875L40.3784 26.4487C40.3128 26.711 40.2554 26.9323 40.2063 27.1125C40.1571 27.2928 40.1325 27.4485 40.1325 27.5797C40.1325 27.9239 40.2718 28.0959 40.5505 28.0959C40.7963 28.0959 41.0668 27.9976 41.3618 27.8009C41.6732 27.5879 42.0092 27.301 42.3698 26.9404L42.6156 27.1863C42.3862 27.5469 42.0829 27.9157 41.706 28.2926C41.329 28.6532 40.8865 28.9564 40.3784 29.2023C39.8867 29.4481 39.3294 29.5711 38.7066 29.5711C38.1657 29.5711 37.7477 29.4481 37.4527 29.2023C37.1577 28.94 37.0102 28.5795 37.0102 28.1205C37.0102 27.7763 37.0512 27.424 37.1331 27.0634C37.2151 26.6864 37.3134 26.3012 37.4281 25.9079L38.4361 21.753C38.5345 21.3268 38.6164 20.9335 38.682 20.5729C38.7639 20.2123 38.8049 19.9173 38.8049 19.6878C38.8049 19.1142 38.5427 18.8273 38.0182 18.8273C37.2642 18.8273 36.3136 19.3928 35.1663 20.5237C35.1499 20.5565 35.1335 20.5975 35.1171 20.6466C35.1171 20.6794 35.1171 20.7204 35.1171 20.7696L34.4287 23.9656C34.2485 24.8343 34.0764 25.703 33.9125 26.5717C33.7486 27.4403 33.5765 28.3172 33.3962 29.2023L30.4214 29.3744L30.2247 29.2023L31.8719 21.4088C31.9375 21.081 31.9948 20.7778 32.044 20.4991C32.0932 20.2041 32.1177 19.9501 32.1177 19.737C32.1177 19.1961 31.8719 18.9257 31.3802 18.9257C30.5443 18.9257 29.5609 19.4584 28.43 20.5237L27.6678 23.9656C27.4875 24.8343 27.3154 25.703 27.1515 26.5717C26.9876 27.4403 26.8237 28.3172 26.6598 29.2023Z"/>
<path d="M46.4678 29.5711C45.6647 29.5711 45.0091 29.358 44.501 28.9318C44.0093 28.4893 43.7634 27.8255 43.7634 26.9404C43.7634 26.3504 43.829 25.6948 43.9601 24.9736C44.1076 24.2525 44.2551 23.5313 44.4027 22.8101L45.9024 15.2379C46.0335 14.5331 45.7794 14.0742 45.1402 13.8611L44.6977 13.689L44.7223 13.4432L49.541 12.0664L49.6885 12.2385L48.0413 19.7862C48.7133 18.9503 49.459 18.2783 50.2785 17.7702C51.1144 17.2621 51.8929 17.008 52.6141 17.008C53.3353 17.008 53.9253 17.2621 54.3842 17.7702C54.8596 18.2783 55.0972 19.1306 55.0972 20.327C55.0972 21.2449 54.9333 22.1545 54.6055 23.056C54.2777 23.9411 53.827 24.7769 53.2533 25.5637C52.6797 26.3504 52.0241 27.047 51.2865 27.6534C50.5653 28.2435 49.7868 28.7106 48.9509 29.0548C48.1314 29.399 47.3037 29.5711 46.4678 29.5711ZM46.6645 27.3338C46.6645 27.7436 46.7464 28.0878 46.9103 28.3664C47.0742 28.6286 47.3365 28.7597 47.6971 28.7597C48.5821 28.7597 49.418 28.2517 50.2048 27.2355C50.5326 26.8093 50.8276 26.2684 51.0898 25.6128C51.3685 24.9572 51.5815 24.2607 51.729 23.5231C51.8929 22.7855 51.9749 22.0808 51.9749 21.4088C51.9749 20.5237 51.852 19.8599 51.6061 19.4174C51.3603 18.9748 51.0243 18.7536 50.5981 18.7536C50.2048 18.7536 49.7868 18.9093 49.3443 19.2207C48.9181 19.5321 48.4592 19.9583 47.9675 20.4991L47.3037 23.5477C47.107 24.4819 46.9513 25.2687 46.8366 25.9079C46.7219 26.5307 46.6645 27.006 46.6645 27.3338Z"/>
<path d="M60.4568 29.5711C59.6045 29.5711 58.826 29.4072 58.1212 29.0794C57.4164 28.7352 56.8591 28.2271 56.4494 27.5551C56.0396 26.8667 55.8348 25.998 55.8348 24.949C55.8348 23.9001 56.0069 22.9003 56.3511 21.9497C56.7116 20.999 57.2115 20.1549 57.8507 19.4174C58.49 18.6634 59.2357 18.0734 60.088 17.6472C60.9403 17.2211 61.8663 17.008 62.8661 17.008C63.7348 17.008 64.5051 17.1801 65.1771 17.5243C65.8655 17.8521 66.4064 18.352 66.7998 19.024C67.2095 19.696 67.4144 20.5565 67.4144 21.6055C67.4144 22.638 67.2341 23.6378 66.8735 24.6049C66.5293 25.5555 66.0376 26.4078 65.3984 27.1617C64.7756 27.8993 64.038 28.4893 63.1857 28.9318C62.3498 29.358 61.4402 29.5711 60.4568 29.5711ZM60.7518 29.0794C61.2599 29.0794 61.7188 28.8499 62.1286 28.391C62.5547 27.9157 62.9235 27.2928 63.2349 26.5225C63.5463 25.7358 63.784 24.8753 63.9479 23.9411C64.1118 22.9904 64.1937 22.048 64.1937 21.1138C64.1937 19.7534 64.0544 18.8109 63.7758 18.2865C63.4971 17.762 63.1366 17.4997 62.694 17.4997C62.1696 17.4997 61.686 17.7292 61.2435 18.1881C60.801 18.647 60.4158 19.2617 60.088 20.032C59.7602 20.8023 59.5061 21.6546 59.3259 22.5889C59.1456 23.5231 59.0554 24.4573 59.0554 25.3916C59.0554 26.7847 59.2193 27.7518 59.5471 28.2926C59.8749 28.8171 60.2765 29.0794 60.7518 29.0794Z"/>
<path d="M71.1993 29.5711C70.1668 29.5711 69.3309 29.3662 68.6917 28.9564C68.0525 28.5467 67.7328 27.9648 67.7328 27.2109C67.7328 26.8175 67.8722 26.4733 68.1508 26.1783C68.4294 25.8833 68.79 25.7358 69.2325 25.7358C70.052 25.7358 70.5601 26.2357 70.7568 27.2355L70.9043 27.9239C70.9863 28.268 71.0846 28.5467 71.1993 28.7597C71.3305 28.9728 71.5763 29.0794 71.9369 29.0794C72.3467 29.0794 72.7073 28.9073 73.0187 28.5631C73.3301 28.2189 73.4858 27.7436 73.4858 27.1371C73.4858 26.6782 73.3383 26.2357 73.0432 25.8095C72.7646 25.3834 72.2893 24.9163 71.6173 24.4082C70.9453 23.8837 70.4044 23.3428 69.9947 22.7855C69.5849 22.2119 69.3801 21.5317 69.3801 20.745C69.3801 20.0566 69.5521 19.4338 69.8963 18.8765C70.2569 18.3028 70.7732 17.8521 71.4452 17.5243C72.1172 17.1801 72.9121 17.008 73.83 17.008C74.8953 17.008 75.7312 17.2211 76.3377 17.6472C76.9605 18.0734 77.2719 18.6225 77.2719 19.2945C77.2719 19.655 77.1654 19.9583 76.9523 20.2041C76.7392 20.4336 76.4196 20.5483 75.9935 20.5483C75.2067 20.5483 74.6741 20.073 74.3954 19.1224L74.1496 18.434C74.0676 18.1062 73.9693 17.8767 73.8546 17.7456C73.7398 17.6145 73.5595 17.5489 73.3137 17.5489C73.0514 17.5489 72.781 17.6964 72.5024 17.9914C72.2237 18.2701 72.0844 18.7208 72.0844 19.3436C72.0844 19.9337 72.2565 20.4745 72.6007 20.9662C72.9613 21.4416 73.494 21.9415 74.1988 22.4659C74.9199 23.0068 75.4444 23.5313 75.7722 24.0394C76.1164 24.5475 76.2885 25.1621 76.2885 25.8833C76.2885 26.5553 76.0918 27.1699 75.6984 27.7272C75.3051 28.2844 74.7314 28.7352 73.9775 29.0794C73.2235 29.4072 72.2975 29.5711 71.1993 29.5711Z"/>
</mask>
<path d="M5.13031 29.5711C3.91744 29.5711 2.92584 29.1613 2.1555 28.3418C1.38517 27.5223 1 26.375 1 24.8999C1 23.8509 1.18029 22.8593 1.54087 21.9251C1.90146 20.9744 2.40136 20.1303 3.04057 19.3928C3.69618 18.6552 4.44193 18.0734 5.27782 17.6472C6.13011 17.2211 7.03976 17.008 8.00678 17.008C8.58043 17.008 9.11311 17.0982 9.60482 17.2785C10.1129 17.4588 10.5145 17.7128 10.8095 18.0406C11.1209 18.3684 11.2684 18.7536 11.252 19.1961C11.2356 19.6386 11.0963 19.991 10.8341 20.2533C10.5718 20.4991 10.2276 20.6221 9.8015 20.6221C9.34257 20.6221 8.9738 20.4827 8.69516 20.2041C8.41653 19.9255 8.19526 19.6059 8.03136 19.2453L7.88385 18.8273C7.65439 18.2865 7.44951 17.9669 7.26922 17.8685C7.10532 17.7538 6.81849 17.8685 6.40874 18.2127C5.96621 18.5897 5.54826 19.0978 5.1549 19.737C4.77792 20.3762 4.47471 21.081 4.24525 21.8513C4.01578 22.6216 3.90105 23.4084 3.90105 24.2115C3.90105 25.4407 4.16329 26.3504 4.68778 26.9404C5.22865 27.5141 5.94982 27.8009 6.85127 27.8009C7.44132 27.8009 8.02317 27.6124 8.59682 27.2355C9.17048 26.8585 9.70316 26.334 10.1949 25.662L10.5391 25.9079C10.1949 26.5471 9.75233 27.1453 9.21145 27.7026C8.67058 28.2599 8.04775 28.7106 7.34298 29.0548C6.65459 29.399 5.91704 29.5711 5.13031 29.5711Z" fill="#1D2539"/>
<path d="M15.8961 29.5711C15.0438 29.5711 14.2653 29.4072 13.5605 29.0794C12.8558 28.7352 12.2985 28.2271 11.8887 27.5551C11.479 26.8667 11.2741 25.998 11.2741 24.949C11.2741 23.9001 11.4462 22.9003 11.7904 21.9497C12.151 20.999 12.6509 20.1549 13.2901 19.4174C13.9293 18.6634 14.6751 18.0734 15.5273 17.6472C16.3796 17.2211 17.3057 17.008 18.3055 17.008C19.1742 17.008 19.9445 17.1801 20.6165 17.5243C21.3049 17.8521 21.8457 18.352 22.2391 19.024C22.6489 19.696 22.8537 20.5565 22.8537 21.6055C22.8537 22.638 22.6734 23.6378 22.3129 24.6049C21.9687 25.5555 21.477 26.4078 20.8377 27.1617C20.2149 27.8993 19.4774 28.4893 18.6251 28.9318C17.7892 29.358 16.8795 29.5711 15.8961 29.5711ZM16.1911 29.0794C16.6992 29.0794 17.1582 28.8499 17.5679 28.391C17.9941 27.9157 18.3628 27.2928 18.6743 26.5225C18.9857 25.7358 19.2233 24.8753 19.3872 23.9411C19.5511 22.9904 19.6331 22.048 19.6331 21.1138C19.6331 19.7534 19.4938 18.8109 19.2151 18.2865C18.9365 17.762 18.5759 17.4997 18.1334 17.4997C17.6089 17.4997 17.1254 17.7292 16.6829 18.1881C16.2403 18.647 15.8552 19.2617 15.5273 20.032C15.1995 20.8023 14.9455 21.6546 14.7652 22.5889C14.5849 23.5231 14.4948 24.4573 14.4948 25.3916C14.4948 26.7847 14.6587 27.7518 14.9865 28.2926C15.3143 28.8171 15.7158 29.0794 16.1911 29.0794Z" fill="#1D2539"/>
<path d="M26.6598 29.2023L23.6604 29.3744L23.4638 29.2023L25.3568 20.1549C25.5043 19.4993 25.2749 19.0486 24.6684 18.8027L24.2259 18.5815L24.2751 18.3356L28.8479 16.9834L29.0692 17.2047L28.5529 19.8599C29.3888 18.9912 30.2411 18.3028 31.1097 17.7948C31.9784 17.2703 32.7897 17.008 33.5437 17.008C34.0682 17.008 34.5025 17.1719 34.8467 17.4997C35.1909 17.8111 35.363 18.3028 35.363 18.9748C35.363 19.1224 35.3548 19.2699 35.3384 19.4174C35.322 19.5649 35.3056 19.7206 35.2892 19.8845C36.1087 18.9994 36.9364 18.3028 37.7723 17.7948C38.6246 17.2703 39.4359 17.008 40.2063 17.008C40.7308 17.008 41.1569 17.1719 41.4847 17.4997C41.8289 17.8111 42.001 18.3028 42.001 18.9748C42.001 19.319 41.9682 19.6796 41.9026 20.0566C41.8371 20.4172 41.7551 20.7941 41.6568 21.1875L40.3784 26.4487C40.3128 26.711 40.2554 26.9323 40.2063 27.1125C40.1571 27.2928 40.1325 27.4485 40.1325 27.5797C40.1325 27.9239 40.2718 28.0959 40.5505 28.0959C40.7963 28.0959 41.0668 27.9976 41.3618 27.8009C41.6732 27.5879 42.0092 27.301 42.3698 26.9404L42.6156 27.1863C42.3862 27.5469 42.0829 27.9157 41.706 28.2926C41.329 28.6532 40.8865 28.9564 40.3784 29.2023C39.8867 29.4481 39.3294 29.5711 38.7066 29.5711C38.1657 29.5711 37.7477 29.4481 37.4527 29.2023C37.1577 28.94 37.0102 28.5795 37.0102 28.1205C37.0102 27.7763 37.0512 27.424 37.1331 27.0634C37.2151 26.6864 37.3134 26.3012 37.4281 25.9079L38.4361 21.753C38.5345 21.3268 38.6164 20.9335 38.682 20.5729C38.7639 20.2123 38.8049 19.9173 38.8049 19.6878C38.8049 19.1142 38.5427 18.8273 38.0182 18.8273C37.2642 18.8273 36.3136 19.3928 35.1663 20.5237C35.1499 20.5565 35.1335 20.5975 35.1171 20.6466C35.1171 20.6794 35.1171 20.7204 35.1171 20.7696L34.4287 23.9656C34.2485 24.8343 34.0764 25.703 33.9125 26.5717C33.7486 27.4403 33.5765 28.3172 33.3962 29.2023L30.4214 29.3744L30.2247 29.2023L31.8719 21.4088C31.9375 21.081 31.9948 20.7778 32.044 20.4991C32.0932 20.2041 32.1177 19.9501 32.1177 19.737C32.1177 19.1961 31.8719 18.9257 31.3802 18.9257C30.5443 18.9257 29.5609 19.4584 28.43 20.5237L27.6678 23.9656C27.4875 24.8343 27.3154 25.703 27.1515 26.5717C26.9876 27.4403 26.8237 28.3172 26.6598 29.2023Z" fill="#1D2539"/>
<path d="M46.4678 29.5711C45.6647 29.5711 45.0091 29.358 44.501 28.9318C44.0093 28.4893 43.7634 27.8255 43.7634 26.9404C43.7634 26.3504 43.829 25.6948 43.9601 24.9736C44.1076 24.2525 44.2551 23.5313 44.4027 22.8101L45.9024 15.2379C46.0335 14.5331 45.7794 14.0742 45.1402 13.8611L44.6977 13.689L44.7223 13.4432L49.541 12.0664L49.6885 12.2385L48.0413 19.7862C48.7133 18.9503 49.459 18.2783 50.2785 17.7702C51.1144 17.2621 51.8929 17.008 52.6141 17.008C53.3353 17.008 53.9253 17.2621 54.3842 17.7702C54.8596 18.2783 55.0972 19.1306 55.0972 20.327C55.0972 21.2449 54.9333 22.1545 54.6055 23.056C54.2777 23.9411 53.827 24.7769 53.2533 25.5637C52.6797 26.3504 52.0241 27.047 51.2865 27.6534C50.5653 28.2435 49.7868 28.7106 48.9509 29.0548C48.1314 29.399 47.3037 29.5711 46.4678 29.5711ZM46.6645 27.3338C46.6645 27.7436 46.7464 28.0878 46.9103 28.3664C47.0742 28.6286 47.3365 28.7597 47.6971 28.7597C48.5821 28.7597 49.418 28.2517 50.2048 27.2355C50.5326 26.8093 50.8276 26.2684 51.0898 25.6128C51.3685 24.9572 51.5815 24.2607 51.729 23.5231C51.8929 22.7855 51.9749 22.0808 51.9749 21.4088C51.9749 20.5237 51.852 19.8599 51.6061 19.4174C51.3603 18.9748 51.0243 18.7536 50.5981 18.7536C50.2048 18.7536 49.7868 18.9093 49.3443 19.2207C48.9181 19.5321 48.4592 19.9583 47.9675 20.4991L47.3037 23.5477C47.107 24.4819 46.9513 25.2687 46.8366 25.9079C46.7219 26.5307 46.6645 27.006 46.6645 27.3338Z" fill="#1D2539"/>
<path d="M60.4568 29.5711C59.6045 29.5711 58.826 29.4072 58.1212 29.0794C57.4164 28.7352 56.8591 28.2271 56.4494 27.5551C56.0396 26.8667 55.8348 25.998 55.8348 24.949C55.8348 23.9001 56.0069 22.9003 56.3511 21.9497C56.7116 20.999 57.2115 20.1549 57.8507 19.4174C58.49 18.6634 59.2357 18.0734 60.088 17.6472C60.9403 17.2211 61.8663 17.008 62.8661 17.008C63.7348 17.008 64.5051 17.1801 65.1771 17.5243C65.8655 17.8521 66.4064 18.352 66.7998 19.024C67.2095 19.696 67.4144 20.5565 67.4144 21.6055C67.4144 22.638 67.2341 23.6378 66.8735 24.6049C66.5293 25.5555 66.0376 26.4078 65.3984 27.1617C64.7756 27.8993 64.038 28.4893 63.1857 28.9318C62.3498 29.358 61.4402 29.5711 60.4568 29.5711ZM60.7518 29.0794C61.2599 29.0794 61.7188 28.8499 62.1286 28.391C62.5547 27.9157 62.9235 27.2928 63.2349 26.5225C63.5463 25.7358 63.784 24.8753 63.9479 23.9411C64.1118 22.9904 64.1937 22.048 64.1937 21.1138C64.1937 19.7534 64.0544 18.8109 63.7758 18.2865C63.4971 17.762 63.1366 17.4997 62.694 17.4997C62.1696 17.4997 61.686 17.7292 61.2435 18.1881C60.801 18.647 60.4158 19.2617 60.088 20.032C59.7602 20.8023 59.5061 21.6546 59.3259 22.5889C59.1456 23.5231 59.0554 24.4573 59.0554 25.3916C59.0554 26.7847 59.2193 27.7518 59.5471 28.2926C59.8749 28.8171 60.2765 29.0794 60.7518 29.0794Z" fill="#1D2539"/>
<path d="M71.1993 29.5711C70.1668 29.5711 69.3309 29.3662 68.6917 28.9564C68.0525 28.5467 67.7328 27.9648 67.7328 27.2109C67.7328 26.8175 67.8722 26.4733 68.1508 26.1783C68.4294 25.8833 68.79 25.7358 69.2325 25.7358C70.052 25.7358 70.5601 26.2357 70.7568 27.2355L70.9043 27.9239C70.9863 28.268 71.0846 28.5467 71.1993 28.7597C71.3305 28.9728 71.5763 29.0794 71.9369 29.0794C72.3467 29.0794 72.7073 28.9073 73.0187 28.5631C73.3301 28.2189 73.4858 27.7436 73.4858 27.1371C73.4858 26.6782 73.3383 26.2357 73.0432 25.8095C72.7646 25.3834 72.2893 24.9163 71.6173 24.4082C70.9453 23.8837 70.4044 23.3428 69.9947 22.7855C69.5849 22.2119 69.3801 21.5317 69.3801 20.745C69.3801 20.0566 69.5521 19.4338 69.8963 18.8765C70.2569 18.3028 70.7732 17.8521 71.4452 17.5243C72.1172 17.1801 72.9121 17.008 73.83 17.008C74.8953 17.008 75.7312 17.2211 76.3377 17.6472C76.9605 18.0734 77.2719 18.6225 77.2719 19.2945C77.2719 19.655 77.1654 19.9583 76.9523 20.2041C76.7392 20.4336 76.4196 20.5483 75.9935 20.5483C75.2067 20.5483 74.6741 20.073 74.3954 19.1224L74.1496 18.434C74.0676 18.1062 73.9693 17.8767 73.8546 17.7456C73.7398 17.6145 73.5595 17.5489 73.3137 17.5489C73.0514 17.5489 72.781 17.6964 72.5024 17.9914C72.2237 18.2701 72.0844 18.7208 72.0844 19.3436C72.0844 19.9337 72.2565 20.4745 72.6007 20.9662C72.9613 21.4416 73.494 21.9415 74.1988 22.4659C74.9199 23.0068 75.4444 23.5313 75.7722 24.0394C76.1164 24.5475 76.2885 25.1621 76.2885 25.8833C76.2885 26.5553 76.0918 27.1699 75.6984 27.7272C75.3051 28.2844 74.7314 28.7352 73.9775 29.0794C73.2235 29.4072 72.2975 29.5711 71.1993 29.5711Z" fill="#1D2539"/>
<path d="M5.13031 29.5711C3.91744 29.5711 2.92584 29.1613 2.1555 28.3418C1.38517 27.5223 1 26.375 1 24.8999C1 23.8509 1.18029 22.8593 1.54087 21.9251C1.90146 20.9744 2.40136 20.1303 3.04057 19.3928C3.69618 18.6552 4.44193 18.0734 5.27782 17.6472C6.13011 17.2211 7.03976 17.008 8.00678 17.008C8.58043 17.008 9.11311 17.0982 9.60482 17.2785C10.1129 17.4588 10.5145 17.7128 10.8095 18.0406C11.1209 18.3684 11.2684 18.7536 11.252 19.1961C11.2356 19.6386 11.0963 19.991 10.8341 20.2533C10.5718 20.4991 10.2276 20.6221 9.8015 20.6221C9.34257 20.6221 8.9738 20.4827 8.69516 20.2041C8.41653 19.9255 8.19526 19.6059 8.03136 19.2453L7.88385 18.8273C7.65439 18.2865 7.44951 17.9669 7.26922 17.8685C7.10532 17.7538 6.81849 17.8685 6.40874 18.2127C5.96621 18.5897 5.54826 19.0978 5.1549 19.737C4.77792 20.3762 4.47471 21.081 4.24525 21.8513C4.01578 22.6216 3.90105 23.4084 3.90105 24.2115C3.90105 25.4407 4.16329 26.3504 4.68778 26.9404C5.22865 27.5141 5.94982 27.8009 6.85127 27.8009C7.44132 27.8009 8.02317 27.6124 8.59682 27.2355C9.17048 26.8585 9.70316 26.334 10.1949 25.662L10.5391 25.9079C10.1949 26.5471 9.75233 27.1453 9.21145 27.7026C8.67058 28.2599 8.04775 28.7106 7.34298 29.0548C6.65459 29.399 5.91704 29.5711 5.13031 29.5711Z" stroke="white" stroke-width="2" mask="url(#path-2-outside-1_3053_32943)"/>
<path d="M15.8961 29.5711C15.0438 29.5711 14.2653 29.4072 13.5605 29.0794C12.8558 28.7352 12.2985 28.2271 11.8887 27.5551C11.479 26.8667 11.2741 25.998 11.2741 24.949C11.2741 23.9001 11.4462 22.9003 11.7904 21.9497C12.151 20.999 12.6509 20.1549 13.2901 19.4174C13.9293 18.6634 14.6751 18.0734 15.5273 17.6472C16.3796 17.2211 17.3057 17.008 18.3055 17.008C19.1742 17.008 19.9445 17.1801 20.6165 17.5243C21.3049 17.8521 21.8457 18.352 22.2391 19.024C22.6489 19.696 22.8537 20.5565 22.8537 21.6055C22.8537 22.638 22.6734 23.6378 22.3129 24.6049C21.9687 25.5555 21.477 26.4078 20.8377 27.1617C20.2149 27.8993 19.4774 28.4893 18.6251 28.9318C17.7892 29.358 16.8795 29.5711 15.8961 29.5711ZM16.1911 29.0794C16.6992 29.0794 17.1582 28.8499 17.5679 28.391C17.9941 27.9157 18.3628 27.2928 18.6743 26.5225C18.9857 25.7358 19.2233 24.8753 19.3872 23.9411C19.5511 22.9904 19.6331 22.048 19.6331 21.1138C19.6331 19.7534 19.4938 18.8109 19.2151 18.2865C18.9365 17.762 18.5759 17.4997 18.1334 17.4997C17.6089 17.4997 17.1254 17.7292 16.6829 18.1881C16.2403 18.647 15.8552 19.2617 15.5273 20.032C15.1995 20.8023 14.9455 21.6546 14.7652 22.5889C14.5849 23.5231 14.4948 24.4573 14.4948 25.3916C14.4948 26.7847 14.6587 27.7518 14.9865 28.2926C15.3143 28.8171 15.7158 29.0794 16.1911 29.0794Z" stroke="white" stroke-width="2" mask="url(#path-2-outside-1_3053_32943)"/>
<path d="M26.6598 29.2023L23.6604 29.3744L23.4638 29.2023L25.3568 20.1549C25.5043 19.4993 25.2749 19.0486 24.6684 18.8027L24.2259 18.5815L24.2751 18.3356L28.8479 16.9834L29.0692 17.2047L28.5529 19.8599C29.3888 18.9912 30.2411 18.3028 31.1097 17.7948C31.9784 17.2703 32.7897 17.008 33.5437 17.008C34.0682 17.008 34.5025 17.1719 34.8467 17.4997C35.1909 17.8111 35.363 18.3028 35.363 18.9748C35.363 19.1224 35.3548 19.2699 35.3384 19.4174C35.322 19.5649 35.3056 19.7206 35.2892 19.8845C36.1087 18.9994 36.9364 18.3028 37.7723 17.7948C38.6246 17.2703 39.4359 17.008 40.2063 17.008C40.7308 17.008 41.1569 17.1719 41.4847 17.4997C41.8289 17.8111 42.001 18.3028 42.001 18.9748C42.001 19.319 41.9682 19.6796 41.9026 20.0566C41.8371 20.4172 41.7551 20.7941 41.6568 21.1875L40.3784 26.4487C40.3128 26.711 40.2554 26.9323 40.2063 27.1125C40.1571 27.2928 40.1325 27.4485 40.1325 27.5797C40.1325 27.9239 40.2718 28.0959 40.5505 28.0959C40.7963 28.0959 41.0668 27.9976 41.3618 27.8009C41.6732 27.5879 42.0092 27.301 42.3698 26.9404L42.6156 27.1863C42.3862 27.5469 42.0829 27.9157 41.706 28.2926C41.329 28.6532 40.8865 28.9564 40.3784 29.2023C39.8867 29.4481 39.3294 29.5711 38.7066 29.5711C38.1657 29.5711 37.7477 29.4481 37.4527 29.2023C37.1577 28.94 37.0102 28.5795 37.0102 28.1205C37.0102 27.7763 37.0512 27.424 37.1331 27.0634C37.2151 26.6864 37.3134 26.3012 37.4281 25.9079L38.4361 21.753C38.5345 21.3268 38.6164 20.9335 38.682 20.5729C38.7639 20.2123 38.8049 19.9173 38.8049 19.6878C38.8049 19.1142 38.5427 18.8273 38.0182 18.8273C37.2642 18.8273 36.3136 19.3928 35.1663 20.5237C35.1499 20.5565 35.1335 20.5975 35.1171 20.6466C35.1171 20.6794 35.1171 20.7204 35.1171 20.7696L34.4287 23.9656C34.2485 24.8343 34.0764 25.703 33.9125 26.5717C33.7486 27.4403 33.5765 28.3172 33.3962 29.2023L30.4214 29.3744L30.2247 29.2023L31.8719 21.4088C31.9375 21.081 31.9948 20.7778 32.044 20.4991C32.0932 20.2041 32.1177 19.9501 32.1177 19.737C32.1177 19.1961 31.8719 18.9257 31.3802 18.9257C30.5443 18.9257 29.5609 19.4584 28.43 20.5237L27.6678 23.9656C27.4875 24.8343 27.3154 25.703 27.1515 26.5717C26.9876 27.4403 26.8237 28.3172 26.6598 29.2023Z" stroke="white" stroke-width="2" mask="url(#path-2-outside-1_3053_32943)"/>
<path d="M46.4678 29.5711C45.6647 29.5711 45.0091 29.358 44.501 28.9318C44.0093 28.4893 43.7634 27.8255 43.7634 26.9404C43.7634 26.3504 43.829 25.6948 43.9601 24.9736C44.1076 24.2525 44.2551 23.5313 44.4027 22.8101L45.9024 15.2379C46.0335 14.5331 45.7794 14.0742 45.1402 13.8611L44.6977 13.689L44.7223 13.4432L49.541 12.0664L49.6885 12.2385L48.0413 19.7862C48.7133 18.9503 49.459 18.2783 50.2785 17.7702C51.1144 17.2621 51.8929 17.008 52.6141 17.008C53.3353 17.008 53.9253 17.2621 54.3842 17.7702C54.8596 18.2783 55.0972 19.1306 55.0972 20.327C55.0972 21.2449 54.9333 22.1545 54.6055 23.056C54.2777 23.9411 53.827 24.7769 53.2533 25.5637C52.6797 26.3504 52.0241 27.047 51.2865 27.6534C50.5653 28.2435 49.7868 28.7106 48.9509 29.0548C48.1314 29.399 47.3037 29.5711 46.4678 29.5711ZM46.6645 27.3338C46.6645 27.7436 46.7464 28.0878 46.9103 28.3664C47.0742 28.6286 47.3365 28.7597 47.6971 28.7597C48.5821 28.7597 49.418 28.2517 50.2048 27.2355C50.5326 26.8093 50.8276 26.2684 51.0898 25.6128C51.3685 24.9572 51.5815 24.2607 51.729 23.5231C51.8929 22.7855 51.9749 22.0808 51.9749 21.4088C51.9749 20.5237 51.852 19.8599 51.6061 19.4174C51.3603 18.9748 51.0243 18.7536 50.5981 18.7536C50.2048 18.7536 49.7868 18.9093 49.3443 19.2207C48.9181 19.5321 48.4592 19.9583 47.9675 20.4991L47.3037 23.5477C47.107 24.4819 46.9513 25.2687 46.8366 25.9079C46.7219 26.5307 46.6645 27.006 46.6645 27.3338Z" stroke="white" stroke-width="2" mask="url(#path-2-outside-1_3053_32943)"/>
<path d="M60.4568 29.5711C59.6045 29.5711 58.826 29.4072 58.1212 29.0794C57.4164 28.7352 56.8591 28.2271 56.4494 27.5551C56.0396 26.8667 55.8348 25.998 55.8348 24.949C55.8348 23.9001 56.0069 22.9003 56.3511 21.9497C56.7116 20.999 57.2115 20.1549 57.8507 19.4174C58.49 18.6634 59.2357 18.0734 60.088 17.6472C60.9403 17.2211 61.8663 17.008 62.8661 17.008C63.7348 17.008 64.5051 17.1801 65.1771 17.5243C65.8655 17.8521 66.4064 18.352 66.7998 19.024C67.2095 19.696 67.4144 20.5565 67.4144 21.6055C67.4144 22.638 67.2341 23.6378 66.8735 24.6049C66.5293 25.5555 66.0376 26.4078 65.3984 27.1617C64.7756 27.8993 64.038 28.4893 63.1857 28.9318C62.3498 29.358 61.4402 29.5711 60.4568 29.5711ZM60.7518 29.0794C61.2599 29.0794 61.7188 28.8499 62.1286 28.391C62.5547 27.9157 62.9235 27.2928 63.2349 26.5225C63.5463 25.7358 63.784 24.8753 63.9479 23.9411C64.1118 22.9904 64.1937 22.048 64.1937 21.1138C64.1937 19.7534 64.0544 18.8109 63.7758 18.2865C63.4971 17.762 63.1366 17.4997 62.694 17.4997C62.1696 17.4997 61.686 17.7292 61.2435 18.1881C60.801 18.647 60.4158 19.2617 60.088 20.032C59.7602 20.8023 59.5061 21.6546 59.3259 22.5889C59.1456 23.5231 59.0554 24.4573 59.0554 25.3916C59.0554 26.7847 59.2193 27.7518 59.5471 28.2926C59.8749 28.8171 60.2765 29.0794 60.7518 29.0794Z" stroke="white" stroke-width="2" mask="url(#path-2-outside-1_3053_32943)"/>
<path d="M71.1993 29.5711C70.1668 29.5711 69.3309 29.3662 68.6917 28.9564C68.0525 28.5467 67.7328 27.9648 67.7328 27.2109C67.7328 26.8175 67.8722 26.4733 68.1508 26.1783C68.4294 25.8833 68.79 25.7358 69.2325 25.7358C70.052 25.7358 70.5601 26.2357 70.7568 27.2355L70.9043 27.9239C70.9863 28.268 71.0846 28.5467 71.1993 28.7597C71.3305 28.9728 71.5763 29.0794 71.9369 29.0794C72.3467 29.0794 72.7073 28.9073 73.0187 28.5631C73.3301 28.2189 73.4858 27.7436 73.4858 27.1371C73.4858 26.6782 73.3383 26.2357 73.0432 25.8095C72.7646 25.3834 72.2893 24.9163 71.6173 24.4082C70.9453 23.8837 70.4044 23.3428 69.9947 22.7855C69.5849 22.2119 69.3801 21.5317 69.3801 20.745C69.3801 20.0566 69.5521 19.4338 69.8963 18.8765C70.2569 18.3028 70.7732 17.8521 71.4452 17.5243C72.1172 17.1801 72.9121 17.008 73.83 17.008C74.8953 17.008 75.7312 17.2211 76.3377 17.6472C76.9605 18.0734 77.2719 18.6225 77.2719 19.2945C77.2719 19.655 77.1654 19.9583 76.9523 20.2041C76.7392 20.4336 76.4196 20.5483 75.9935 20.5483C75.2067 20.5483 74.6741 20.073 74.3954 19.1224L74.1496 18.434C74.0676 18.1062 73.9693 17.8767 73.8546 17.7456C73.7398 17.6145 73.5595 17.5489 73.3137 17.5489C73.0514 17.5489 72.781 17.6964 72.5024 17.9914C72.2237 18.2701 72.0844 18.7208 72.0844 19.3436C72.0844 19.9337 72.2565 20.4745 72.6007 20.9662C72.9613 21.4416 73.494 21.9415 74.1988 22.4659C74.9199 23.0068 75.4444 23.5313 75.7722 24.0394C76.1164 24.5475 76.2885 25.1621 76.2885 25.8833C76.2885 26.5553 76.0918 27.1699 75.6984 27.7272C75.3051 28.2844 74.7314 28.7352 73.9775 29.0794C73.2235 29.4072 72.2975 29.5711 71.1993 29.5711Z" stroke="white" stroke-width="2" mask="url(#path-2-outside-1_3053_32943)"/>
<defs>
<linearGradient id="paint0_linear_3053_32943" x1="-0.823975" y1="8.8" x2="114.176" y2="8.8" gradientUnits="userSpaceOnUse">
<stop stop-color="#0F61FF"/>
<stop offset="1" stop-color="#4D8BFF"/>
</linearGradient>
<linearGradient id="paint1_linear_3053_32943" x1="-0.823975" y1="8.8" x2="114.176" y2="8.8" gradientUnits="userSpaceOnUse">
<stop stop-color="#0F61FF"/>
<stop offset="1" stop-color="#4D8BFF"/>
</linearGradient>
<linearGradient id="paint2_linear_3053_32943" x1="-0.823975" y1="8.8" x2="114.176" y2="8.8" gradientUnits="userSpaceOnUse">
<stop stop-color="#0F61FF"/>
<stop offset="1" stop-color="#4D8BFF"/>
</linearGradient>
<linearGradient id="paint3_linear_3053_32943" x1="-0.823975" y1="8.8" x2="114.176" y2="8.8" gradientUnits="userSpaceOnUse">
<stop stop-color="#0F61FF"/>
<stop offset="1" stop-color="#4D8BFF"/>
</linearGradient>
<linearGradient id="paint4_linear_3053_32943" x1="-0.823975" y1="8.8" x2="114.176" y2="8.8" gradientUnits="userSpaceOnUse">
<stop stop-color="#0F61FF"/>
<stop offset="1" stop-color="#4D8BFF"/>
</linearGradient>
<linearGradient id="paint5_linear_3053_32943" x1="-0.823975" y1="8.8" x2="114.176" y2="8.8" gradientUnits="userSpaceOnUse">
<stop stop-color="#0F61FF"/>
<stop offset="1" stop-color="#4D8BFF"/>
</linearGradient>
<linearGradient id="paint6_linear_3053_32943" x1="-0.823975" y1="8.8" x2="114.176" y2="8.8" gradientUnits="userSpaceOnUse">
<stop stop-color="#0F61FF"/>
<stop offset="1" stop-color="#4D8BFF"/>
</linearGradient>
<linearGradient id="paint7_linear_3053_32943" x1="-0.823975" y1="8.8" x2="114.176" y2="8.8" gradientUnits="userSpaceOnUse">
<stop stop-color="#0F61FF"/>
<stop offset="1" stop-color="#4D8BFF"/>
</linearGradient>
<linearGradient id="paint8_linear_3053_32943" x1="-0.823975" y1="8.8" x2="114.176" y2="8.8" gradientUnits="userSpaceOnUse">
<stop stop-color="#0F61FF"/>
<stop offset="1" stop-color="#4D8BFF"/>
</linearGradient>
</defs>
</svg>
