<svg width="16" height="16" viewBox="0 0 16 16" fill="none" xmlns="http://www.w3.org/2000/svg">
<path d="M6.36917 5.09483C5.96 5.09483 5.58917 5.22733 5.30333 5.47317L5.22167 5.18317H4.5V8.83317H5.4175V6.84983C5.4175 6.42733 5.7 5.99983 6.24083 5.99983C6.66333 5.99983 6.91583 6.29733 6.91583 6.79567V8.83317H7.83333V6.72817C7.83333 5.7365 7.25833 5.09483 6.36917 5.09483Z" fill="#0F61FF"/>
<path d="M14.9633 7.589L13.7442 6.36983C13.3975 6.02317 12.9375 5.83317 12.4475 5.83317H11.5V4.33317C11.5 3.32233 10.6775 2.49983 9.66667 2.49983H2.33333C1.3225 2.49983 0.5 3.32233 0.5 4.33317V9.6665C0.5 10.389 0.920833 11.0132 1.53 11.3115C1.51083 11.4273 1.5 11.5457 1.5 11.6665C1.5 12.8615 2.47167 13.8332 3.66667 13.8332C4.86167 13.8332 5.83333 12.8615 5.83333 11.6665C5.83333 11.6107 5.83083 11.5548 5.82667 11.4998H9.5075C9.50333 11.5548 9.50083 11.6107 9.50083 11.6665C9.50083 12.8615 10.4725 13.8332 11.6675 13.8332C12.8625 13.8332 13.8342 12.8615 13.8342 11.6665C13.8342 11.6107 13.8317 11.5548 13.8275 11.4998H14.3342C14.9775 11.4998 15.5008 10.9765 15.5008 10.3332V8.88567C15.5008 8.39567 15.31 7.93567 14.9642 7.589H14.9633ZM3.66667 12.8332C3.02333 12.8332 2.5 12.3098 2.5 11.6665C2.5 11.0232 3.02333 10.4998 3.66667 10.4998C4.31 10.4998 4.83333 11.0232 4.83333 11.6665C4.83333 12.3098 4.31 12.8332 3.66667 12.8332ZM3.66667 9.49983C2.95 9.49983 2.31333 9.84983 1.91917 10.3882C1.66917 10.2448 1.5 9.97483 1.5 9.6665V4.33317C1.5 3.874 1.87417 3.49983 2.33333 3.49983H9.66667C10.1258 3.49983 10.5 3.874 10.5 4.33317V9.6665C10.5 10.1257 10.1258 10.4998 9.66667 10.4998H5.49083C5.105 9.899 4.43167 9.49983 3.66667 9.49983ZM11.6667 12.8332C11.0233 12.8332 10.5 12.3098 10.5 11.6665C10.5 11.0232 11.0233 10.4998 11.6667 10.4998C12.31 10.4998 12.8333 11.0232 12.8333 11.6665C12.8333 12.3098 12.31 12.8332 11.6667 12.8332ZM11.6667 8.49983C11.575 8.49983 11.5 8.42483 11.5 8.33317V6.83317H12.4475C12.67 6.83317 12.8792 6.91983 13.0367 7.07733L14.2558 8.2965C14.3167 8.35733 14.3667 8.42567 14.4058 8.49983H11.6667Z" fill="#0F61FF"/>
</svg>
